:SAMPLES-PER-SECOND 30
:FULLY-SPECIFIED
:DEGREES
671
root  -70.3986 39.7556 -4.68673 175.31 -68.3069 -178.942
RightUpLeg  -11.4816 -5.59855 3.68826
RightLeg  19.9426 8.1641 3.13517
RightFoot  -3.54557 0.341618 -5.35535
RightToes  9.54606e-009 0 -3.6325e-017
Spine  -0.734765 -1.10555 8.90742
Spine1  9.53579 -1.39283 4.14146
HEad  -16.4467 -12.341 1.54056
LeftShoulder1  -0.0883061 3.72597 -33.1192
LeftArm  5.47765 2.55363 -42.968
LeftForeArm  26.741 -13.7413 -8.25099
LeftHand  -0.14619 8.21797 -3.89233
RightShoulder  -1.14068 -6.67576 29.4051
RightArm  22.7665 2.13579 47.1207
RightForeArm  12.5312 33.15 6.64099
RightHand  0.0243794 5.27225 -0.0470201
LeftUpLeg  -11.8916 1.78742 3.804
LeftLeg  56.045 -0.680994 -0.59801
LeftFoot  -4.05879 0.487955 -7.26937
LeftToes  -8.26734e-010 9.74065e-011 1.64617e-011
672
root  -71.0774 39.8589 -4.65962 175.529 -63.1064 -179.531
RightUpLeg  -9.8712 -5.24298 3.62087
RightLeg  19.4095 12.9278 4.16522
RightFoot  -3.88397 0.297965 -4.97217
RightToes  9.54606e-009 0 -3.6325e-017
Spine  -0.259154 -0.817554 10.8944
Spine1  9.7534 -0.468909 1.50455
HEad  -16.2163 -13.6391 2.52205
LeftShoulder1  0.0818278 3.29017 -31.8705
LeftArm  2.5712 4.56829 -43.5755
LeftForeArm  31.0531 -11.9467 -8.73013
LeftHand  -0.173098 8.69608 -4.16229
RightShoulder  -1.34549 -7.13431 30.5886
RightArm  23.1074 1.49058 46.4266
RightForeArm  12.8379 35.5845 7.27026
RightHand  0.0335958 5.49868 0.0483781
LeftUpLeg  -12.8667 -1.28704 3.6323
LeftLeg  53.3713 -0.309524 0.015049
LeftFoot  -5.21304 0.389102 -6.70038
LeftToes  -8.26734e-010 9.74065e-011 1.64617e-011
673
root  -71.6934 39.9406 -4.69046 176.081 -57.8203 -179.752
RightUpLeg  -9.14359 -4.67522 3.83343
RightLeg  18.9902 17.5349 4.93369
RightFoot  -3.97973 0.285109 -4.82823
RightToes  9.54606e-009 0 -3.6325e-017
Spine  -0.238927 -0.71336 10.6511
Spine1  9.79185 -0.547898 1.7949
HEad  -16.4496 -13.6599 2.59309
LeftShoulder1  0.0115717 3.4726 -32.1498
LeftArm  3.48796 6.36766 -42.9281
LeftForeArm  29.7696 -11.6547 -9.07236
LeftHand  -0.161716 8.56116 -3.95545
RightShoulder  -1.32932 -7.08021 30.6795
RightArm  25.2021 1.89009 46.7631
RightForeArm  10.8855 35.5193 7.37424
RightHand  -0.0387915 6.23771 -0.730713
LeftUpLeg  -14.1729 -5.4221 4.12424
LeftLeg  49.5834 -0.298357 0.0529417
LeftFoot  -6.01708 0.340879 -6.54386
LeftToes  -8.26734e-010 9.74065e-011 1.64617e-011
674
root  -72.3528 40.0141 -4.68615 176.948 -51.8131 -179.652
RightUpLeg  -9.05644 -4.08649 4.08444
RightLeg  18.6455 22.7924 5.90556
RightFoot  -3.96728 0.279003 -4.66038
RightToes  9.54606e-009 0 -3.6325e-017
Spine  -0.349543 -0.651517 10.4694
Spine1  9.16031 -0.782285 2.22012
HEad  -16.0162 -13.8209 2.26216
LeftShoulder1  -0.19887 4.01506 -32.802
LeftArm  1.76326 9.13279 -42.6165
LeftForeArm  29.9955 -12.0394 -8.47258
LeftHand  -0.181406 8.76912 -4.31577
RightShoulder  -1.30662 -7.0109 30.7521
RightArm  27.0649 1.73381 46.4612
RightForeArm  10.637 35.5145 7.38755
RightHand  -0.0171996 6.44947 -0.506611
LeftUpLeg  -15.5796 -9.87868 5.37595
LeftLeg  45.0838 -1.25563 -0.931519
LeftFoot  -6.69103 0.259492 -5.41642
LeftToes  -8.26734e-010 9.74065e-011 1.64617e-011
675
root  -73.0121 40.0404 -4.63297 177.347 -45.2604 -179.076
RightUpLeg  -9.14719 -3.30648 4.61032
RightLeg  18.8826 28.3912 6.98691
RightFoot  -3.88114 0.273133 -4.59313
RightToes  9.54606e-009 0 -3.6325e-017
Spine  -0.00925863 -0.493055 10.4434
Spine1  8.23681 -0.992008 3.26518
HEad  -15.4436 -13.6264 1.50548
LeftShoulder1  -0.353525 4.39262 -33.5944
LeftArm  2.05701 11.5884 -42.3651
LeftForeArm  27.8537 -12.6479 -8.21941
LeftHand  -0.141438 8.61995 -3.21634
RightShoulder  -1.15814 -6.7137 29.5594
RightArm  28.0633 1.17453 47.0563
RightForeArm  9.9993 34.4611 7.13583
RightHand  0.00388608 5.89093 -0.278125
LeftUpLeg  -16.4325 -14.9972 7.50408
LeftLeg  40.3638 -3.69169 -2.98867
LeftFoot  -8.12803 0.184418 -4.78501
LeftToes  -8.26734e-010 9.74065e-011 1.64617e-011
676
root  -73.685 40.0154 -4.55797 177.915 -38.0525 -178.8
RightUpLeg  -9.66866 -2.85158 4.6326
RightLeg  20.3871 34.7784 9.32261
RightFoot  -4.25867 0.226771 -4.13694
RightToes  9.54606e-009 0 -3.6325e-017
Spine  0.414359 -0.096515 10.4056
Spine1  7.44501 -0.869012 4.17264
HEad  -13.7276 -15.2699 0.667099
LeftShoulder1  -0.461164 4.63443 -34.685
LeftArm  3.33157 13.1586 -41.6917
LeftForeArm  26.2698 -13.2072 -8.14724
LeftHand  -0.148772 8.28532 -3.8975
RightShoulder  -1.03311 -6.41371 28.9804
RightArm  30.3128 1.41443 46.7887
RightForeArm  6.1247 31.866 6.67846
RightHand  -0.0684214 6.57054 -1.01162
LeftUpLeg  -16.4867 -21.0782 9.52526
LeftLeg  35.3586 -6.31181 -4.46069
LeftFoot  -9.24662 0.114067 -3.24458
LeftToes  -8.26734e-010 9.74065e-011 1.64617e-011
677
root  -74.3687 39.9894 -4.55805 178.125 -30.4057 -178.664
RightUpLeg  -9.6408 -1.86083 4.69147
RightLeg  22.1732 40.8236 11.5689
RightFoot  -5.14725 0.120231 -2.84261
RightToes  9.54606e-009 0 -3.6325e-017
Spine  0.572112 0.158187 10.8674
Spine1  7.76203 -0.433972 3.25195
HEad  -12.7936 -15.8519 0.757309
LeftShoulder1  -0.445907 4.62104 -33.5835
LeftArm  5.69551 14.6398 -42.3082
LeftForeArm  23.8934 -14.0311 -8.12833
LeftHand  -0.142618 8.18806 -3.81542
RightShoulder  -1.13816 -6.62586 29.8797
RightArm  32.6882 2.88306 46.5883
RightForeArm  1.94088 28.1113 5.96676
RightHand  -0.0562435 5.3778 -0.926087
LeftUpLeg  -15.1517 -27.7173 11.2424
LeftLeg  30.0304 -9.23245 -5.38558
LeftFoot  -9.83775 0.0885223 -2.21074
LeftToes  -8.26734e-010 9.74065e-011 1.64617e-011
678
root  -74.9483 39.924 -4.5781 178.304 -22.5986 -178.129
RightUpLeg  -9.68359 0.886644 5.30458
RightLeg  23.2551 45.1555 12.6681
RightFoot  -6.94808 -0.0565057 0.369811
RightToes  9.54606e-009 0 -3.6325e-017
Spine  0.79219 0.515733 11.6921
Spine1  8.03699 0.28733 1.55769
HEad  -12.4308 -16.4322 1.73366
LeftShoulder1  -0.270405 4.21514 -31.9508
LeftArm  6.02675 16.2285 -43.5315
LeftForeArm  24.4043 -15.0622 -7.52152
LeftHand  -0.147838 8.3396 -3.79774
RightShoulder  -1.34273 -7.07052 31.1596
RightArm  33.1396 3.73646 46.4414
RightForeArm  -1.78401 24.7548 5.42235
RightHand  -0.112961 4.93677 -1.55381
LeftUpLeg  -13.3602 -31.5253 12.8025
LeftLeg  25.1479 -13.5556 -6.53441
LeftFoot  -10.584 0.0636584 -1.59961
LeftToes  -8.26734e-010 9.74065e-011 1.64617e-011
679
root  -75.4708 39.8602 -4.56478 179.173 -14.4151 -177.717
RightUpLeg  -10.4773 5.50948 5.50958
RightLeg  23.8018 48.1744 13.455
RightFoot  -9.33624 -0.145838 4.75198
RightToes  9.54606e-009 0 -3.6325e-017
Spine  1.26203 0.618039 9.89015
Spine1  7.39824 0.0608915 2.81071
HEad  -12.0062 -15.9582 2.40697
LeftShoulder1  -0.383538 4.4902 -32.7566
LeftArm  9.04224 17.7542 -42.4546
LeftForeArm  21.6246 -16.9195 -6.74802
LeftHand  -0.136191 7.86658 -4.07001
RightShoulder  -1.22351 -6.82964 30.2912
RightArm  33.4596 4.28909 47.6962
RightForeArm  -3.54112 21.5747 5.28311
RightHand  -0.184532 4.82994 -2.42678
LeftUpLeg  -11.4821 -28.7631 13.3406
LeftLeg  22.4424 -16.5132 -7.07093
LeftFoot  -14.0669 0.0013452 -3.71501
LeftToes  -8.26734e-010 9.74065e-011 1.64617e-011
680
root  -76.022 39.8436 -4.44118 -179.971 -6.49915 -177.928
RightUpLeg  -11.4437 10.0329 4.4864
RightLeg  24.3594 51.1062 14.781
RightFoot  -11.3719 -0.0783514 8.77247
RightToes  9.54606e-009 0 -3.6325e-017
Spine  2.20558 0.373848 7.87094
Spine1  6.8975 -0.207174 3.06409
HEad  -12.1403 -17.065 2.89716
LeftShoulder1  -0.42956 4.60256 -32.9561
LeftArm  9.76598 18.5748 -41.714
LeftForeArm  19.3392 -17.6992 -6.35064
LeftHand  -0.108019 7.65281 -3.15557
RightShoulder  -1.22725 -6.87468 29.8999
RightArm  32.6909 5.22818 48.7932
RightForeArm  -2.13464 19.6958 5.8317
RightHand  -0.207869 3.02364 -3.07313
LeftUpLeg  -9.1056 -22.9835 11.7437
LeftLeg  21.743 -14.1661 -5.83985
LeftFoot  -15.8042 -0.0224312 -2.90469
LeftToes  -8.26734e-010 9.74065e-011 1.64617e-011
681
root  -76.4857 39.9743 -4.33045 -179.21 -0.120804 -178.771
RightUpLeg  -11.6184 12.3624 2.91109
RightLeg  22.5294 55.0214 14.0057
RightFoot  -12.6993 0.066946 12.6141
RightToes  9.54606e-009 0 -3.6325e-017
Spine  3.07655 -0.343067 3.4894
Spine1  6.2176 -1.37747 4.69952
HEad  -12.7325 -17.0892 3.7252
LeftShoulder1  -0.419056 4.56307 -33.4245
LeftArm  8.11225 18.7332 -40.7996
LeftForeArm  19.0299 -17.27 -6.45955
LeftHand  -0.0834343 7.73608 -1.899
RightShoulder  -1.11352 -6.58601 29.6133
RightArm  32.532 5.32529 48.6641
RightForeArm  -2.8469 19.5325 5.95673
RightHand  -0.223412 3.63519 -3.13937
LeftUpLeg  -6.97254 -18.1755 9.32847
LeftLeg  19.5888 -11.0602 -4.02886
LeftFoot  -14.5475 0.0791975 -0.326042
LeftToes  -8.26734e-010 9.74065e-011 1.64617e-011
682
root  -76.9906 40.0969 -4.20926 -178.213 5.47241 -179.309
RightUpLeg  -12.3303 12.6142 1.79395
RightLeg  20.3451 58.784 12.369
RightFoot  -13.7459 0.228831 15.6158
RightToes  9.54606e-009 0 -3.6325e-017
Spine  3.39921 -1.02678 -0.395611
Spine1  5.80805 -2.63218 6.70081
HEad  -13.4851 -17.4177 5.1727
LeftShoulder1  -0.452356 4.63135 -33.9246
LeftArm  6.52505 17.6441 -39.7651
LeftForeArm  20.2858 -16.164 -6.92929
LeftHand  -0.0955161 8.05277 -2.16298
RightShoulder  -1.12032 -6.66617 28.8847
RightArm  31.5819 4.52881 48.6172
RightForeArm  -3.21668 20.6876 5.50568
RightHand  -0.186153 4.2182 -2.52227
LeftUpLeg  -6.22811 -15.285 7.57093
LeftLeg  18.1662 -7.82745 -2.44176
LeftFoot  -13.5913 0.0847545 0.115265
LeftToes  -8.26734e-010 9.74065e-011 1.64617e-011
683
root  -77.5276 40.2201 -4.06616 -177.546 10.7451 -179.547
RightUpLeg  -13.3815 11.3532 1.21398
RightLeg  17.8091 56.7126 9.64329
RightFoot  -12.2368 0.03865 14.158
RightToes  9.54606e-009 0 -3.6325e-017
Spine  4.35484 -1.55451 -2.57218
Spine1  5.08992 -3.40953 7.69636
HEad  -14.3847 -19.7647 6.59328
LeftShoulder1  -0.534579 4.82458 -34.1928
LeftArm  6.1703 16.5809 -38.9676
LeftForeArm  20.1512 -16.2807 -6.81039
LeftHand  -0.0926086 9.5269 -1.02452
RightShoulder  -1.01992 -6.44343 28.1469
RightArm  29.2742 2.43111 48.708
RightForeArm  -3.95938 22.0815 5.1995
RightHand  -0.215201 3.86432 -2.96343
LeftUpLeg  -5.48014 -10.8471 6.1533
LeftLeg  16.8579 -6.98999 -1.34569
LeftFoot  -12.9489 0.0780922 0.118752
LeftToes  -8.26734e-010 9.74065e-011 1.64617e-011
684
root  -78.0581 40.3846 -3.9694 -177.11 16.1462 -179.583
RightUpLeg  -14.1357 9.15906 1.04954
RightLeg  12.6541 44.7634 3.50372
RightFoot  -8.18786 -0.311543 9.56995
RightToes  9.54606e-009 0 -3.6325e-017
Spine  5.11763 -1.74883 -2.3443
Spine1  4.67658 -3.19222 5.92229
HEad  -15.5119 -21.67 8.79066
LeftShoulder1  -0.30244 4.2872 -32.588
LeftArm  4.75675 16.4463 -39.1411
LeftForeArm  20.0659 -17.2322 -6.07562
LeftHand  -0.0243244 9.07515 0.530148
RightShoulder  -1.08637 -6.54511 29.1909
RightArm  27.348 0.396656 47.6637
RightForeArm  -3.71473 23.1921 5.176
RightHand  -0.225742 3.88656 -3.0697
LeftUpLeg  -4.31066 -4.41744 5.02067
LeftLeg  14.9585 -7.94517 -0.685259
LeftFoot  -11.8445 0.0755645 0.833673
LeftToes  -8.26734e-010 9.74065e-011 1.64617e-011
685
root  -78.6135 40.5055 -3.90439 -175.689 23.0528 -179.753
RightUpLeg  -16.4703 6.63219 0.218808
RightLeg  10.2181 29.3499 0.112945
RightFoot  -4.21315 -0.338774 4.86805
RightToes  9.54606e-009 0 -3.6325e-017
Spine  4.03017 -1.1974 -1.88879
Spine1  5.12358 -2.32108 4.63384
HEad  -16.6042 -22.7634 8.98042
LeftShoulder1  -0.281969 4.22513 -32.9537
LeftArm  6.90721 16.0843 -37.8517
LeftForeArm  17.1376 -19.8984 -4.93427
LeftHand  -0.039227 7.51547 -0.166821
RightShoulder  -1.03631 -6.43828 28.7702
RightArm  25.8256 -1.58176 47.6162
RightForeArm  -5.25411 23.7543 5.33872
RightHand  -0.332101 5.16334 -3.96564
LeftUpLeg  -4.36261 0.417508 3.86368
LeftLeg  13.4188 -6.01115 -0.018554
LeftFoot  -11.1403 0.0657951 0.663732
LeftToes  -8.26734e-010 9.74065e-011 1.64617e-011
